<svg xmlns="http://www.w3.org/2000/svg" version="1.1" xmlns:xlink="http://www.w3.org/1999/xlink" width="512" height="512" x="0" y="0" viewBox="0 0 512 512" style="enable-background:new 0 0 512 512" xml:space="preserve" class=""><g><path d="m266.777 28.209 53.447 164.49h172.571c11.003 0 15.537 14.11 6.595 20.519l-139.48 99.973 53.353 163.521c3.407 10.44-8.555 19.127-17.429 12.658l-139.82-101.928-139.835 101.426c-8.884 6.443-20.819-2.257-17.404-12.686l53.342-162.888L12.608 213.216c-8.938-6.412-4.402-20.517 6.598-20.517h172.595l53.447-164.49c3.387-10.428 18.141-10.428 21.529 0z" style="" fill="#fcc062" data-original="#fcc062" class="" opacity="0"></path><path d="M256.012 387.443 116.178 488.868c-8.884 6.443-20.819-2.257-17.404-12.686l53.342-162.888L12.608 213.216c-8.938-6.412-4.402-20.517 6.598-20.517h172.595l53.447-164.49c3.389-10.428 18.142-10.428 21.531 0" style="" fill="#fcc062" data-original="#fbb03b" class="" opacity="0"></path><path d="M402.5 499.461c-3.932 0-7.863-1.249-11.29-3.749L256 397.146 120.784 495.22c-6.852 4.97-15.701 4.96-22.542-.026-6.843-4.988-9.561-13.408-6.925-21.454l51.551-157.422L8.034 219.592C1.139 214.645-1.638 206.229.96 198.15c2.598-8.078 9.76-13.299 18.246-13.299H186.1l51.685-159.068c2.614-8.045 9.769-13.244 18.228-13.244h.001c8.459.001 15.613 5.199 18.227 13.244l51.685 159.067h166.868c8.487 0 15.65 5.221 18.247 13.302 2.597 8.081-.183 16.498-7.081 21.442L369.151 316.22l51.571 158.057c2.628 8.054-.104 16.476-6.958 21.454-3.423 2.487-7.344 3.729-11.264 3.73zm-146.476-121.72 144.431 105.288c1.778 1.295 3.324.559 4.086.003.763-.555 1.942-1.796 1.261-3.886l-55.136-168.985 144.15-103.321c1.79-1.284 1.572-2.985 1.283-3.885-.289-.9-1.104-2.41-3.305-2.41H314.522L259.314 30.633c-.678-2.087-2.359-2.399-3.302-2.399-.943 0-2.624.312-3.302 2.399l-55.207 169.912H19.206c-2.201 0-3.016 1.51-3.306 2.41-.289.9-.507 2.601 1.282 3.885l144.181 103.43-55.132 168.354c-.683 2.088.493 3.331 1.254 3.887.763.557 2.306 1.295 4.084.005l144.455-104.775z" fill="#000000" opacity="1" data-original="#000000" class=""></path><path d="M296.983 208.993h103.581v15.694H296.983zM416.258 208.993h24.064v15.694h-24.064z" style="" fill="#ffffff" data-original="#ffffff" class=""></path></g></svg>