<svg xmlns="http://www.w3.org/2000/svg" version="1.1" xmlns:xlink="http://www.w3.org/1999/xlink" width="512" height="512" x="0" y="0" viewBox="0 0 512 512" style="enable-background:new 0 0 512 512" xml:space="preserve" class=""><g><g data-name="Group 3"><path fill="#000000" d="M451.69 98.81v.01a14.762 14.762 0 0 1-14.76 14.76H75.07a14.762 14.762 0 0 1-14.76-14.76v-.01a14.762 14.762 0 0 1 14.76-14.76h361.86a14.762 14.762 0 0 1 14.76 14.76zM447.37 142.5a14.764 14.764 0 0 1-10.44 25.2H75.07a14.76 14.76 0 0 1 0-29.52h361.86a14.731 14.731 0 0 1 10.44 4.32z" opacity="1" data-original="#00efd1" class=""></path><path fill="#e09f1f" d="M424.36 167.7v.06l-42.2 270.27a48.1 48.1 0 0 1-47.62 41.3H177.46a48.1 48.1 0 0 1-47.62-41.3l-42.2-270.27v-.06z" opacity="1" data-original="#00acea" class=""></path><g fill="#083863"><path d="M256 444.34a6 6 0 0 0 6-6V245.93a6 6 0 0 0-12 0v192.41a6 6 0 0 0 6 6zM308.536 444.328c.127.008.254.012.38.012a6 6 0 0 0 5.982-5.626L326.929 246.3a6 6 0 1 0-11.977-.748l-12.03 192.41a6 6 0 0 0 5.614 6.366zM197.1 438.714a6 6 0 0 0 5.982 5.626c.126 0 .253 0 .38-.012a6 6 0 0 0 5.614-6.362l-12.03-192.41a6 6 0 1 0-11.976.748z" fill="#2c4d6e" opacity="1" data-original="#083863" class=""></path><path d="M60.387 167.772A20.771 20.771 0 0 0 75.07 174h7.43l41.4 264.865A54.1 54.1 0 0 0 177.46 485h157.08c26.745 0 49.772-19.654 53.548-46.059L429.505 174h7.425a21 21 0 0 0 0-42H75.07a21 21 0 0 0-14.683 35.772zm315.834 269.394A42.041 42.041 0 0 1 334.54 473H177.46a42.059 42.059 0 0 1-41.692-35.911L94.641 174H417.36zM75.07 144h361.86a8.784 8.784 0 0 1 6.19 2.646 9.2 9.2 0 0 1 2.57 6.4 8.938 8.938 0 0 1-8.76 8.954H75.07a8.853 8.853 0 0 1-6.2-2.712 9.093 9.093 0 0 1-2.563-6.362A8.912 8.912 0 0 1 75.07 144zM54.31 99.005a20.985 20.985 0 0 0 20.76 21h361.86a21 21 0 0 0 0-42H330V47.43C330 35.982 320.348 27 308.9 27H203.1c-11.447 0-21.1 8.982-21.1 20.43V78H75.07a20.987 20.987 0 0 0-20.76 21.005zm391.38 0a8.974 8.974 0 0 1-8.76 9H75.07a9 9 0 0 1 0-18h361.86a8.976 8.976 0 0 1 8.76 9zM194 47.43c0-4.83 4.27-8.43 9.1-8.43h105.8c4.83 0 9.1 3.6 9.1 8.43V78H194z" fill="#2c4d6e" opacity="1" data-original="#083863" class=""></path></g></g></g></svg>